HIERARCHY
ROOT pelvis
{
	OFFSET 0.003123 -0.351407 0.012037
	CHANNELS 6 Xposition Yposition Zposition Zrotation Yrotation Xrotation 
	JOINT left_hip
	{
		OFFSET 0.058189 -0.092763 -0.026001
		CHANNELS 3 Zrotation Yrotation Xrotation
		JOINT left_knee
		{
			OFFSET 0.054695 -0.378753 -0.009396
			CHANNELS 3 Zrotation Yrotation Xrotation
			JOINT left_ankle
			{
				OFFSET -0.043453 -0.403059 -0.031876
				CHANNELS 3 Zrotation Yrotation Xrotation
				JOINT left_foot
				{
					OFFSET 0.047257 -0.057997 0.118216
					CHANNELS 3 Zrotation Yrotation Xrotation
					End Site
					{
						OFFSET 0.000000 0.000000 0.000000
					}
				}
			}
		}
	}
	JOINT right_hip
	{
		OFFSET -0.063267 -0.103908 -0.021250
		CHANNELS 3 Zrotation Yrotation Xrotation
		JOINT right_knee
		{
			OFFSET -0.044210 -0.362380 -0.016824
			CHANNELS 3 Zrotation Yrotation Xrotation
			JOINT right_ankle
			{
				OFFSET 0.015417 -0.410728 -0.020192
				CHANNELS 3 Zrotation Yrotation Xrotation
				JOINT right_foot
				{
					OFFSET -0.038812 -0.058328 0.119049
					CHANNELS 3 Zrotation Yrotation Xrotation
					End Site
					{
						OFFSET 0.000000 0.000000 0.000000
					}
				}
			}
		}
	}
	JOINT spine_1
	{
		OFFSET -0.002763 0.109891 -0.027618
		CHANNELS 3 Zrotation Yrotation Xrotation
		JOINT spine_2
		{
			OFFSET 0.009448 0.131853 -0.005940
			CHANNELS 3 Zrotation Yrotation Xrotation
			JOINT spine_3
			{
				OFFSET -0.011330 0.052235 0.028447
				CHANNELS 3 Zrotation Yrotation Xrotation
				JOINT neck
				{
					OFFSET -0.012164 0.165167 -0.031615
					CHANNELS 3 Zrotation Yrotation Xrotation
					JOINT head
					{
						OFFSET 0.024783 0.160452 0.020737
						CHANNELS 3 Zrotation Yrotation Xrotation
						End Site
						{
							OFFSET 0.000000 0.000000 0.000000
						}
					}
				}
				JOINT left_collar
				{
					OFFSET 0.046364 0.084944 -0.007220
					CHANNELS 3 Zrotation Yrotation Xrotation
					JOINT left_shoulder
					{
						OFFSET 0.119239 0.057728 -0.015461
						CHANNELS 3 Zrotation Yrotation Xrotation
						JOINT left_elbow
						{
							OFFSET 0.254123 -0.072151 -0.042459
							CHANNELS 3 Zrotation Yrotation Xrotation
							JOINT left_wrist
							{
								OFFSET 0.251987 0.023221 -0.002472
								CHANNELS 3 Zrotation Yrotation Xrotation
								JOINT left_index_1
								{
									OFFSET 0.101902 -0.008688 0.019351
									CHANNELS 3 Zrotation Yrotation Xrotation
									JOINT left_index_2
									{
										OFFSET 0.030149 -0.011154 0.001151
										CHANNELS 3 Zrotation Yrotation Xrotation
										JOINT left_index_3
										{
											OFFSET 0.006504 -0.021577 -0.002433
											CHANNELS 3 Zrotation Yrotation Xrotation
											End Site
											{
												OFFSET 0.000000 0.000000 0.000000
											}
										}
									}
								}
								JOINT left_middle_1
								{
									OFFSET 0.109398 -0.006328 -0.003981
									CHANNELS 3 Zrotation Yrotation Xrotation
									JOINT left_middle_2
									{
										OFFSET 0.026472 -0.015218 -0.004641
										CHANNELS 3 Zrotation Yrotation Xrotation
										JOINT left_middle_3
										{
											OFFSET 0.005022 -0.023347 -0.001911
											CHANNELS 3 Zrotation Yrotation Xrotation
											End Site
											{
												OFFSET 0.000000 0.000000 0.000000
											}
										}
									}
								}
								JOINT left_pinky_1
								{
									OFFSET 0.084047 -0.014539 -0.043750
									CHANNELS 3 Zrotation Yrotation Xrotation
									JOINT left_pinky_2
									{
										OFFSET 0.012124 -0.014448 -0.005375
										CHANNELS 3 Zrotation Yrotation Xrotation
										JOINT left_pinky_3
										{
											OFFSET 0.003798 -0.018853 0.000167
											CHANNELS 3 Zrotation Yrotation Xrotation
											End Site
											{
												OFFSET 0.000000 0.000000 0.000000
											}
										}
									}
								}
								JOINT left_ring_1
								{
									OFFSET 0.097444 -0.009268 -0.027345
									CHANNELS 3 Zrotation Yrotation Xrotation
									JOINT left_ring_2
									{
										OFFSET 0.023561 -0.016057 -0.001895
										CHANNELS 3 Zrotation Yrotation Xrotation
										JOINT left_ring_3
										{
											OFFSET 0.004257 -0.023548 0.000814
											CHANNELS 3 Zrotation Yrotation Xrotation
											End Site
											{
												OFFSET 0.000000 0.000000 0.000000
											}
										}
									}
								}
								JOINT left_thumb_1
								{
									OFFSET 0.040636 -0.017977 0.025611
									CHANNELS 3 Zrotation Yrotation Xrotation
									JOINT left_thumb_2
									{
										OFFSET 0.021637 -0.017639 0.011623
										CHANNELS 3 Zrotation Yrotation Xrotation
										JOINT left_thumb_3
										{
											OFFSET 0.024002 -0.008356 0.006548
											CHANNELS 3 Zrotation Yrotation Xrotation
											End Site
											{
												OFFSET 0.000000 0.000000 0.000000
											}
										}
									}
								}
							}
						}
					}
				}
				JOINT right_collar
				{
					OFFSET -0.047695 0.084339 -0.013400
					CHANNELS 3 Zrotation Yrotation Xrotation
					JOINT right_shoulder
					{
						OFFSET -0.102578 0.053524 -0.012669
						CHANNELS 3 Zrotation Yrotation Xrotation
						JOINT right_elbow
						{
							OFFSET -0.271150 -0.036492 -0.026467
							CHANNELS 3 Zrotation Yrotation Xrotation
							JOINT right_wrist
							{
								OFFSET -0.249267 -0.004533 -0.015325
								CHANNELS 3 Zrotation Yrotation Xrotation
								JOINT right_index_1
								{
									OFFSET -0.099881 -0.011783 0.019600
									CHANNELS 3 Zrotation Yrotation Xrotation
									JOINT right_index_2
									{
										OFFSET -0.030148 -0.011154 0.001151
										CHANNELS 3 Zrotation Yrotation Xrotation
										JOINT right_index_3
										{
											OFFSET -0.006505 -0.021577 -0.002432
											CHANNELS 3 Zrotation Yrotation Xrotation
											End Site
											{
												OFFSET 0.000000 0.000000 0.000000
											}
										}
									}
								}
								JOINT right_middle_1
								{
									OFFSET -0.107376 -0.009422 -0.003734
									CHANNELS 3 Zrotation Yrotation Xrotation
									JOINT right_middle_2
									{
										OFFSET -0.026472 -0.015218 -0.004641
										CHANNELS 3 Zrotation Yrotation Xrotation
										JOINT right_middle_3
										{
											OFFSET -0.005022 -0.023347 -0.001911
											CHANNELS 3 Zrotation Yrotation Xrotation
											End Site
											{
												OFFSET 0.000000 0.000000 0.000000
											}
										}
									}
								}
								JOINT right_pinky_1
								{
									OFFSET -0.082027 -0.017634 -0.043503
									CHANNELS 3 Zrotation Yrotation Xrotation
									JOINT right_pinky_2
									{
										OFFSET -0.012123 -0.014448 -0.005374
										CHANNELS 3 Zrotation Yrotation Xrotation
										JOINT right_pinky_3
										{
											OFFSET -0.003798 -0.018852 0.000167
											CHANNELS 3 Zrotation Yrotation Xrotation
											End Site
											{
												OFFSET 0.000000 0.000000 0.000000
											}
										}
									}
								}
								JOINT right_ring_1
								{
									OFFSET -0.095423 -0.012362 -0.027099
									CHANNELS 3 Zrotation Yrotation Xrotation
									JOINT right_ring_2
									{
										OFFSET -0.023561 -0.016057 -0.001895
										CHANNELS 3 Zrotation Yrotation Xrotation
										JOINT right_ring_3
										{
											OFFSET -0.004257 -0.023548 0.000816
											CHANNELS 3 Zrotation Yrotation Xrotation
											End Site
											{
												OFFSET 0.000000 0.000000 0.000000
											}
										}
									}
								}
								JOINT right_thumb_1
								{
									OFFSET -0.038613 -0.021074 0.025861
									CHANNELS 3 Zrotation Yrotation Xrotation
									JOINT right_thumb_2
									{
										OFFSET -0.021636 -0.017639 0.011623
										CHANNELS 3 Zrotation Yrotation Xrotation
										JOINT right_thumb_3
										{
											OFFSET -0.024004 -0.008353 0.006547
											CHANNELS 3 Zrotation Yrotation Xrotation
											End Site
											{
												OFFSET 0.000000 0.000000 0.000000
											}
										}
									}
								}
							}
						}
					}
				}
			}
		}
	}
}
MOTION
Frames: 7
Frame Time: 0.050000
0.053498 0.854713 -0.053528 4.838968 2.266569 -9.115680 24.377541 -0.113041 -5.004537 -4.937485 -1.573018 25.642758 0.173353 7.223029 9.658703 0.000000 0.000000 0.000000 -36.217921 1.454991 3.797317 7.578701 -1.329463 30.259594 4.234463 18.707880 -9.366724 0.000000 0.000000 0.000000 -3.280841 -0.616288 10.916146 -3.928422 1.431826 -3.132576 4.756005 2.617829 12.559879 -0.058959 -0.494127 3.235239 0.000000 0.000000 0.000000 9.142107 -4.125034 2.824282 -44.970549 -38.740353 -3.980756 138.027723 -53.750775 -90.737301 15.161792 0.673636 -13.724353 9.021063 2.234889 0.621786 50.675790 -3.338903 -12.697041 0.000000 0.000000 0.000000 14.275454 -11.534461 -5.908120 45.055176 -2.917482 -2.863605 0.000000 0.000000 0.000000 35.084749 -18.915804 -23.727614 26.229728 0.046296 11.226138 0.000000 0.000000 0.000000 16.903759 -11.448556 -9.117343 42.856513 1.640381 -0.191339 0.000000 0.000000 0.000000 38.118291 21.830810 6.327428 -18.617216 -11.978402 2.660087 0.000000 0.000000 0.000000 -11.506069 6.544553 3.480074 49.449846 42.753567 9.696701 -135.260044 40.293992 -75.926889 -10.897570 1.751179 -25.881161 -7.827983 0.759166 -0.514931 -47.495386 2.880001 -15.125002 0.000000 0.000000 0.000000 -10.692550 14.880904 -8.141762 -43.885468 2.429619 -5.223542 0.000000 0.000000 0.000000 -28.084302 18.359792 -23.766437 -26.209272 -0.165848 8.967507 0.000000 0.000000 0.000000 -11.588300 13.611805 -10.344124 -41.552291 -2.308973 -3.865701 0.000000 0.000000 0.000000 -36.131418 -20.722987 5.286559 20.824682 12.106722 3.525394 0.000000 0.000000 0.000000 
0.061978 0.880662 -0.017891 7.850736 4.113623 -8.276125 17.213344 -0.434855 -10.470268 -3.049402 -2.507090 27.808064 -1.318468 5.491572 10.489040 0.000000 0.000000 0.000000 -31.878449 0.588940 1.547605 2.660366 0.104305 32.506829 2.212999 1.571227 4.247982 0.000000 0.000000 0.000000 -11.873475 -0.363926 11.725481 -4.907115 -0.031688 -11.259728 9.232096 5.773163 18.887719 0.328250 0.175804 -1.098081 0.000000 0.000000 0.000000 14.661663 -4.280075 3.717178 -54.006582 -51.567525 -1.334380 147.552709 -58.267935 -108.404441 13.281595 3.284765 -16.460024 4.216854 1.631008 0.421804 39.416570 -2.426486 -18.154424 0.000000 0.000000 0.000000 4.411090 -12.086652 -6.567995 34.835007 -1.194791 -9.527302 0.000000 0.000000 0.000000 28.231001 -18.945515 -25.696375 19.865349 0.757338 7.700775 0.000000 0.000000 0.000000 8.547318 -12.989783 -9.746149 34.358419 2.366888 -6.030780 0.000000 0.000000 0.000000 31.600191 17.320134 0.615938 -20.360857 -10.305227 3.529129 0.000000 0.000000 0.000000 -9.018851 9.564593 4.304931 51.353213 43.961210 12.113352 -131.551654 39.848199 -67.428799 -10.105996 6.721331 -42.303859 0.491552 4.055145 -0.849361 -28.189055 4.212763 -25.955430 0.000000 0.000000 0.000000 0.331572 18.821678 -9.088825 -26.441073 1.736012 -20.300597 0.000000 0.000000 0.000000 -17.973627 17.354967 -24.751502 -18.340450 -0.197840 0.118159 0.000000 0.000000 0.000000 0.171238 15.994694 -10.007742 -28.167843 -1.674618 -16.379406 0.000000 0.000000 0.000000 -39.410158 -20.259028 2.257448 25.988467 14.201463 5.251312 0.000000 0.000000 0.000000 
0.056561 0.876794 -0.012611 6.930639 -0.016138 -5.040813 18.318909 -0.134967 -12.738801 -4.720774 -1.629284 28.247344 -1.757354 4.115526 10.037612 0.000000 0.000000 0.000000 -29.339309 0.337823 -5.393141 1.104888 0.856738 30.145461 -0.287664 -2.474197 3.018552 0.000000 0.000000 0.000000 -7.719344 -0.418751 15.845898 -5.170755 -0.725811 -13.723677 4.967398 5.011013 17.525844 2.529234 0.113611 -2.885813 0.000000 0.000000 0.000000 12.778769 -8.740646 4.808521 -50.937423 -50.712614 -1.189183 143.701891 -54.175635 -98.013876 12.228332 0.569266 -15.199091 1.783564 2.330441 0.715922 28.382794 -2.461256 -15.149329 0.000000 0.000000 0.000000 0.532568 -11.955165 -6.536892 26.455408 -1.045642 -9.129297 0.000000 0.000000 0.000000 31.084797 -19.962740 -29.087801 16.801223 1.232781 11.017513 0.000000 0.000000 0.000000 6.817700 -14.382051 -10.673133 23.339725 1.531533 -5.809169 0.000000 0.000000 0.000000 28.785128 17.657770 2.258319 -22.602787 -10.402512 4.351951 0.000000 0.000000 0.000000 -13.151644 12.273605 5.416585 53.378672 50.301263 15.016641 -131.793385 38.681686 -66.663395 -6.745956 10.691044 -42.978890 13.570889 4.131506 0.787331 17.640413 13.323982 -25.249866 0.000000 0.000000 0.000000 15.538162 16.211667 -6.454444 0.800370 9.247191 -28.827720 0.000000 0.000000 0.000000 -14.797817 11.182054 -18.319181 -12.680878 3.697543 -13.882123 0.000000 0.000000 0.000000 7.987957 11.351260 -6.406400 -9.985581 7.264371 -29.013201 0.000000 0.000000 0.000000 -28.744413 -19.905969 -0.063455 29.385237 8.975306 6.218835 0.000000 0.000000 0.000000 
0.057738 0.867607 -0.037689 4.730513 0.308165 -1.110264 22.125011 0.039356 -12.380445 -6.305055 -0.592561 19.690647 -1.226356 6.099136 11.799350 0.000000 0.000000 0.000000 -29.581851 0.115282 -7.857749 5.168158 -0.479477 24.369168 -3.208437 -5.163273 -2.354668 0.000000 0.000000 0.000000 -2.911412 -0.706104 13.383973 -4.069589 -0.740887 -11.965668 2.865010 3.200405 17.079829 5.000016 -0.587105 -1.238817 0.000000 0.000000 0.000000 6.541583 -5.108444 2.985684 -54.830561 -43.050669 -1.140734 154.694096 -54.904543 -114.311606 6.814175 -0.930944 -15.489449 0.501653 1.900795 0.619119 31.670075 -2.257194 -8.481079 0.000000 0.000000 0.000000 2.730332 -10.248012 -5.655910 24.325612 -1.034074 -4.029730 0.000000 0.000000 0.000000 27.398079 -17.538260 -23.736714 14.758569 0.949030 6.297281 0.000000 0.000000 0.000000 7.096074 -11.046526 -8.303025 22.319963 1.424817 -5.857425 0.000000 0.000000 0.000000 26.056563 19.057655 5.500867 -21.884958 -11.282980 3.916109 0.000000 0.000000 0.000000 -13.424143 12.923380 5.891410 52.374562 49.265467 13.560502 -130.444763 41.810387 -71.252765 -6.590854 10.337087 -26.258979 15.627932 6.221101 0.527807 17.881532 12.028398 -32.146342 0.000000 0.000000 0.000000 21.075201 20.825954 -8.175207 -0.762161 7.399604 -32.452838 0.000000 0.000000 0.000000 -14.488633 17.537452 -28.292447 2.971865 8.039495 -20.744134 0.000000 0.000000 0.000000 9.680865 18.356720 -10.743449 -0.657089 9.302722 -30.429563 0.000000 0.000000 0.000000 -19.343943 -15.665446 0.840709 19.856449 7.244319 2.934336 0.000000 0.000000 0.000000 
0.065512 0.848267 -0.037689 2.478231 -1.278400 -2.708334 25.575344 0.456030 -10.465323 -7.306666 -0.232839 19.322716 1.248223 9.078547 10.469823 0.000000 0.000000 0.000000 -30.696434 0.473488 -6.707234 9.441974 -1.356482 21.160598 -2.458225 -4.368419 -0.973403 0.000000 0.000000 0.000000 -1.158351 -1.125073 18.088149 -4.826192 -0.415474 -11.625345 4.817230 1.978548 17.145372 2.615664 0.125228 -3.211428 0.000000 0.000000 0.000000 6.386474 -4.039114 2.396587 -59.526259 -37.615010 -0.800555 163.473338 -54.510037 -127.602572 8.336347 -2.419949 -13.105208 0.634999 2.948337 0.986708 32.988750 -2.573010 -7.277866 0.000000 0.000000 0.000000 2.215351 -8.978664 -4.930821 24.158090 -1.163914 -0.042416 0.000000 0.000000 0.000000 24.851330 -18.142412 -24.349591 12.726115 1.468748 10.846202 0.000000 0.000000 0.000000 6.472329 -10.474324 -7.710424 22.895338 1.387724 -0.618179 0.000000 0.000000 0.000000 28.309665 19.223445 5.022353 -19.970630 -12.206246 2.998768 0.000000 0.000000 0.000000 -13.029097 8.549738 4.406579 59.606310 46.974608 14.438902 -139.357464 43.776717 -88.008653 -2.038910 7.422739 -16.566765 10.920681 4.101301 -0.218538 -10.962772 3.181569 -16.849450 0.000000 0.000000 0.000000 8.875612 14.391101 -7.868851 -9.402089 2.826406 -17.598980 0.000000 0.000000 0.000000 -21.798399 15.451823 -20.896985 -4.134874 1.741218 -7.969545 0.000000 0.000000 0.000000 2.277824 13.142608 -8.927230 -11.163868 1.451316 -17.033003 0.000000 0.000000 0.000000 -20.264577 -16.420308 3.860779 21.162810 8.478504 3.804537 0.000000 0.000000 0.000000 
0.069045 0.843109 -0.048248 0.631793 -0.812485 -2.606847 27.706151 0.716731 -11.948393 -7.650400 -0.203813 20.209198 1.553667 8.879109 9.134232 0.000000 0.000000 0.000000 -29.515365 0.518232 -6.079822 11.654694 -1.688889 17.845901 -4.447349 -9.209155 0.886796 0.000000 0.000000 0.000000 -0.340534 -1.555104 22.814156 -5.299461 0.261608 -9.835173 6.320234 2.634629 13.437621 2.055263 0.471412 -4.633577 0.000000 0.000000 0.000000 4.824734 -4.384282 2.504993 -59.005827 -39.229966 -0.550164 164.828163 -58.413890 -133.928030 8.680455 -4.509136 -12.874422 -2.618885 1.524654 0.592059 22.155665 -1.925780 -5.653040 0.000000 0.000000 0.000000 -2.280246 -11.014684 -6.150786 9.727454 -0.135499 1.192296 0.000000 0.000000 0.000000 19.434157 -20.458916 -29.281928 6.323969 2.250751 11.654217 0.000000 0.000000 0.000000 -0.670492 -13.759058 -9.290387 17.456480 0.988183 -2.233524 0.000000 0.000000 0.000000 28.083630 15.680414 -0.469085 -20.746212 -12.375181 3.086215 0.000000 0.000000 0.000000 -10.426122 3.050209 2.143236 66.895066 44.937611 16.707155 -145.138416 47.371995 -103.931142 -0.219526 7.921630 -12.136574 13.257821 -0.589242 0.817206 -0.060516 1.505926 -6.034067 0.000000 0.000000 0.000000 15.038099 13.683464 -7.675947 -2.576062 1.464146 -6.992999 0.000000 0.000000 0.000000 -16.668909 18.907664 -26.718460 -2.185218 -0.392235 1.590348 0.000000 0.000000 0.000000 6.600835 15.254987 -9.768508 -7.676043 0.733650 -8.268277 0.000000 0.000000 0.000000 -23.873317 -22.046806 10.599087 20.336074 14.633178 2.454122 0.000000 0.000000 0.000000 
0.063392 0.828926 -0.045609 0.673324 -1.357706 -1.687916 28.894503 1.245664 -15.280475 -8.828124 0.000322 25.265993 2.386939 9.511812 7.874536 0.000000 0.000000 0.000000 -28.872695 0.219465 -9.341169 10.609150 -1.677571 22.202549 -5.959370 -9.801335 -4.333211 0.000000 0.000000 0.000000 0.311514 -1.789399 24.779749 -5.336855 0.088270 -10.473097 5.267784 2.917341 13.279205 2.170109 0.274299 -3.544905 0.000000 0.000000 0.000000 3.767807 -4.795832 2.613358 -58.580132 -36.062955 -1.498066 168.711530 -59.201870 -140.891284 11.490473 -4.789245 -17.486951 -2.096592 1.479021 0.537731 19.892884 -1.343651 -4.835747 0.000000 0.000000 0.000000 -4.387114 -9.241735 -5.114189 8.771848 0.149431 1.521013 0.000000 0.000000 0.000000 15.188155 -15.708249 -21.103405 7.863767 2.205587 11.392984 0.000000 0.000000 0.000000 -1.835698 -10.175383 -6.708086 16.089979 1.240041 0.235827 0.000000 0.000000 0.000000 26.233533 13.482039 -3.032696 -20.387831 -10.236460 3.178023 0.000000 0.000000 0.000000 -10.970456 4.652425 2.827683 69.599282 38.336263 13.803499 -148.616162 46.647240 -108.942030 -0.675917 6.485465 -14.509756 14.313388 -2.872163 1.378811 -5.853764 1.077413 -4.164867 0.000000 0.000000 0.000000 14.141593 10.475619 -6.235354 -6.820942 0.893328 -4.288268 0.000000 0.000000 0.000000 -15.875814 15.696356 -21.156201 -3.271552 -1.249113 5.468400 0.000000 0.000000 0.000000 6.641568 11.680010 -7.515419 -9.641343 0.034872 -5.283493 0.000000 0.000000 0.000000 -24.660967 -21.289384 8.493972 22.632757 13.360729 3.456653 0.000000 0.000000 0.000000 
